Coordinates
version=1
nRows=4
nColumns=107
inDegrees=yes

Units are S.I. units (second, meters, Newtons, ...)
If the header above contains a line with 'inDegrees', this indicates whether rotational values are in degrees (yes) or radians (no).

endheader
time	sternoclavicular_r2	sternoclavicular_r3	unrotscap_r3	unrotscap_r2	acromioclavicular_r2	acromioclavicular_r3	acromioclavicular_r1	unrothum_r1	unrothum_r3	unrothum_r2	elv_angle	shoulder_elv	shoulder1_r2	shoulder_rot	elbow_flexion	pro_sup	deviation	flexion	proximal_distal_r1	proximal_distal_r3	cmc_flexion	cmc_abduction	mp_flexion	ip_flexion	mcp2_flexion	mcp2_abduction	pm2_flexion	md2_flexion	mcp3_flexion	mcp3_abduction	pm3_flexion	md3_flexion	mcp4_flexion	mcp4_abduction	pm4_flexion	md4_flexion	mcp5_flexion	mcp5_abduction	pm5_flexion	md5_flexion	bicpt_tx	bicpt_ty	bicpt_tz	bicpt2_tx	bicpt2_ty	bicpt2_tz	ptpt_tx	ptpt_ty	ptpt_tz	FCUpt_tx	FCUpt_ty	FCUpt_tz	EDCpt_tx	EDCpt_ty	EDCpt_tz	APLpt_tx	APLpt_ty	APLpt_tz	FPLpt_tx	FPLpt_ty	FPLpt_tz	FPLpt2_tx	FPLpt2_ty	FPLpt2_tz	PEC1pt2_tx	PEC1pt2_ty	PEC1pt2_tz	PEC1pt3_tx	PEC1pt3_ty	PEC1pt3_tz	PEC2pt2_tx	PEC2pt2_ty	PEC2pt2_tz	PEC2pt3_tx	PEC2pt3_ty	PEC2pt3_tz	PEC3pt2_tx	PEC3pt2_ty	PEC3pt2_tz	PEC3pt3_tx	PEC3pt3_ty	PEC3pt3_tz	DELT2pt2a_tx	DELT2pt2a_ty	DELT2pt2a_tz	DELT2pt2_tx	DELT2pt2_ty	DELT2pt2_tz	LAT1pt2_tx	LAT1pt2_ty	LAT1pt2_tz	LAT1pt3_tx	LAT1pt3_ty	LAT1pt3_tz	LAT2pt2_tx	LAT2pt2_ty	LAT2pt2_tz	LAT2pt3_tx	LAT2pt3_ty	LAT2pt3_tz	LAT3pt2_tx	LAT3pt2_ty	LAT3pt2_tz	LAT3pt3_tx	LAT3pt3_ty	LAT3pt3_tz
      0.56666667	     -0.32200923	      0.13638791	     -0.13638791	      0.32200923	     -0.06520032	      0.52692604	      0.23684963	     -0.23684963	     -0.52692604	      0.06520032	     98.60598016	     76.23854756	     -1.72099902	    -23.54614872	     30.66585436	     53.89209943	      0.25827808	     -0.67119311	      0.29591939	     -0.33559656	     11.31143973	     -8.10014452	    -21.18098380	     -2.38158443	     30.58990416	     11.76187006	     38.43772973	      8.53447133	     44.50109630	      4.27228884	     25.14036470	     20.29643957	     53.57082697	     -5.96123527	     13.24310198	     24.58546609	     52.05819563	    -13.64665176	      5.49033955	      5.19209831	      0.00091433	     -0.03111478	     -0.00486614	      0.01637961	     -0.01853053	     -0.00585174	      0.00356798	     -0.06747484	     -0.00439130	      0.00920866	     -0.18317868	     -0.00041237	     -0.00646704	      0.00197514	     -0.00000561	      0.00030946	      0.00012378	      0.00061891	      0.00039610	      0.00118831	      0.00066842	      0.00003084	     -0.00021171	     -0.00025405	      0.00249893	      0.00876744	      0.00609909	     -0.00817447	      0.01973733	     -0.01872081	      0.00249893	      0.00876744	      0.00609909	      0.00055061	      0.01829727	     -0.00961454	      0.00395065	      0.00487546	      0.01597426	      0.00000000	      0.00777328	      0.00000000	     -0.00715796	     -0.03307909	     -0.00640939	      0.01573848	     -0.00054327	     -0.00462582	     -0.00088945	      0.01490888	     -0.00609909	      0.00245658	      0.02151623	     -0.01778901	     -0.00597202	      0.01291821	     -0.00546377	     -0.01245231	      0.02727648	     -0.03053780	     -0.02337984	      0.01444298	     -0.00732738	     -0.01550185	      0.03151196	     -0.03816166
      0.60000000	     -0.32269758	      0.13667946	     -0.13667946	      0.32269758	     -0.06533970	      0.52805244	      0.23735594	     -0.23735594	     -0.52805244	      0.06533970	     98.46674100	     76.40152010	     -1.71856883	    -22.74707560	     30.59414002	     52.99338046	      0.26161864	     -0.67480032	      0.29903110	     -0.33740016	     11.07217939	     -8.20777706	    -20.45329205	     -3.45764172	     31.28741467	     11.85384411	     38.96461361	      8.61048471	     44.53799868	      4.06415664	     24.15731932	     20.91637613	     53.73104955	     -5.95488487	     12.91445094	     25.57583907	     52.36239517	    -13.61291096	      4.97133547	      5.17006497	      0.00091196	     -0.03110656	     -0.00486481	      0.01640556	     -0.01851105	     -0.00596461	      0.00363439	     -0.06743190	     -0.00431890	      0.00911445	     -0.18320080	     -0.00041509	     -0.00635919	      0.00193485	      0.00000739	      0.00030908	      0.00012363	      0.00061815	      0.00039562	      0.00118685	      0.00066761	      0.00003121	     -0.00020870	     -0.00025044	      0.00250427	      0.00878618	      0.00611213	     -0.00819195	      0.01977952	     -0.01876083	      0.00250427	      0.00878618	      0.00611213	      0.00055179	      0.01833638	     -0.00963509	      0.00395681	      0.00488588	      0.01598928	      0.00000000	      0.00780678	      0.00000000	     -0.00717326	     -0.03314980	     -0.00643720	      0.01531099	     -0.00051777	     -0.00431016	     -0.00089135	      0.01494075	     -0.00611213	      0.00246183	      0.02156222	     -0.01782704	     -0.00598479	      0.01294582	     -0.00547545	     -0.01247893	      0.02733479	     -0.03060308	     -0.02342982	      0.01447386	     -0.00734304	     -0.01553499	      0.03157932	     -0.03824324
      0.63333333	     -0.32206805	      0.13641282	     -0.13641282	      0.32206805	     -0.06521223	      0.52702229	      0.23689289	     -0.23689289	     -0.52702229	      0.06521223	     98.65101081	     76.25247257	     -1.72178495	    -23.54088454	     30.51699315	     53.66377694	      0.25034285	     -0.69781698	      0.28845427	     -0.34890849	     11.27257172	     -8.27867782	    -21.47676403	     -1.94363001	     31.41321794	     11.75757521	     37.88402303	      8.30309349	     44.96620230	      4.29036021	     25.14034948	     20.90462863	     54.20826808	     -6.09678865	     12.87065789	     24.28795802	     52.64784731	    -13.65154421	      4.73926141	      5.20397330	      0.00090941	     -0.03109771	     -0.00486339	      0.01638640	     -0.01849009	     -0.00588053	      0.00358485	     -0.06746393	     -0.00437291	      0.00918470	     -0.18318432	     -0.00041312	     -0.00643964	      0.00196488	     -0.00000226	      0.00030617	      0.00012247	      0.00061234	      0.00039190	      0.00117569	      0.00066133	      0.00003090	     -0.00021122	     -0.00025347	      0.00249939	      0.00876904	      0.00610020	     -0.00817597	      0.01974093	     -0.01872423	      0.00249939	      0.00876904	      0.00610020	      0.00055071	      0.01830061	     -0.00961629	      0.00395118	      0.00487635	      0.01597555	      0.00000000	      0.00777614	      0.00000000	     -0.00715927	     -0.03308513	     -0.00641176	      0.01573569	     -0.00054310	     -0.00462371	     -0.00088961	      0.01491161	     -0.00610020	      0.00245703	      0.02152016	     -0.01779226	     -0.00597312	      0.01292057	     -0.00546477	     -0.01245458	      0.02728146	     -0.03054338	     -0.02338411	      0.01444562	     -0.00732872	     -0.01550468	      0.03151772	     -0.03816863
      0.66666667	     -0.32133795	      0.13610359	     -0.13610359	      0.32133795	     -0.06506440	      0.52582758	      0.23635588	     -0.23635588	     -0.52582758	      0.06506440	     98.77520111	     76.07961643	     -1.72395248	    -24.31302559	     30.62362422	     54.52560948	      0.24649994	     -0.69481720	      0.28480093	     -0.34740860	     10.80381557	     -8.84449865	    -19.95722932	     -3.09453400	     30.99361511	     11.80137831	     38.27743993	      8.44379368	     44.64300690	      4.45625056	     25.47509013	     22.05226355	     53.91481033	     -6.02586084	     13.15552388	     25.83885370	     52.67446907	    -13.60915861	      4.37405457	      5.23254823	      0.00091293	     -0.03110994	     -0.00486536	      0.01636019	     -0.01851906	     -0.00577148	      0.00352117	     -0.06750511	     -0.00444233	      0.00927522	     -0.18316294	     -0.00041009	     -0.00654306	      0.00200369	     -0.00001503	      0.00030660	      0.00012264	      0.00061320	      0.00039245	      0.00117734	      0.00066226	      0.00003161	     -0.00020526	     -0.00024631	      0.00249372	      0.00874916	      0.00608637	     -0.00815743	      0.01969618	     -0.01868179	      0.00249372	      0.00874916	      0.00608637	      0.00054946	      0.01825912	     -0.00959449	      0.00394463	      0.00486530	      0.01595955	      0.00000000	      0.00774068	      0.00000000	     -0.00714304	     -0.03301013	     -0.00638232	      0.01614069	     -0.00056795	     -0.00493748	     -0.00088760	      0.01487780	     -0.00608637	      0.00245146	      0.02147138	     -0.01775193	     -0.00595957	      0.01289128	     -0.00545238	     -0.01242635	      0.02721962	     -0.03047414	     -0.02333110	      0.01441287	     -0.00731210	     -0.01546954	      0.03144627	     -0.03808211
